<?xml version="1.0" encoding="UTF-8"?>
<svg xmlns="http://www.w3.org/2000/svg" width="1200" height="1200" viewBox="0 0 1200 1200" role="img" aria-labelledby="title description">
  <title id="title">QR-kod till Maria och Johans bröllopsbilder</title>
  <desc id="description">Skanna koden för att öppna https://mariaochjohan.tfmotor.se/</desc>
  <rect width="1200" height="1200" fill="#fafbf7" />
  <rect x="70" y="70" width="1060" height="1060" rx="28.439" fill="#ffffff" /><rect x="380.244" y="173.415" width="25.854" height="25.854" rx="4.654" fill="#43553d" /><rect x="457.805" y="173.415" width="25.854" height="25.854" rx="4.654" fill="#43553d" /><rect x="483.659" y="173.415" width="25.854" height="25.854" rx="4.654" fill="#43553d" /><rect x="587.073" y="173.415" width="25.854" height="25.854" rx="4.654" fill="#43553d" /><rect x="638.78" y="173.415" width="25.854" height="25.854" rx="4.654" fill="#43553d" /><rect x="690.488" y="173.415" width="25.854" height="25.854" rx="4.654" fill="#43553d" /><rect x="716.341" y="173.415" width="25.854" height="25.854" rx="4.654" fill="#43553d" /><rect x="742.195" y="173.415" width="25.854" height="25.854" rx="4.654" fill="#43553d" /><rect x="793.902" y="173.415" width="25.854" height="25.854" rx="4.654" fill="#43553d" /><rect x="457.805" y="199.268" width="25.854" height="25.854" rx="4.654" fill="#43553d" /><rect x="509.512" y="199.268" width="25.854" height="25.854" rx="4.654" fill="#43553d" /><rect x="587.073" y="199.268" width="25.854" height="25.854" rx="4.654" fill="#43553d" /><rect x="612.927" y="199.268" width="25.854" height="25.854" rx="4.654" fill="#43553d" /><rect x="664.634" y="199.268" width="25.854" height="25.854" rx="4.654" fill="#43553d" /><rect x="716.341" y="199.268" width="25.854" height="25.854" rx="4.654" fill="#43553d" /><rect x="793.902" y="199.268" width="25.854" height="25.854" rx="4.654" fill="#43553d" /><rect x="380.244" y="225.122" width="25.854" height="25.854" rx="4.654" fill="#43553d" /><rect x="483.659" y="225.122" width="25.854" height="25.854" rx="4.654" fill="#43553d" /><rect x="509.512" y="225.122" width="25.854" height="25.854" rx="4.654" fill="#43553d" /><rect x="535.366" y="225.122" width="25.854" height="25.854" rx="4.654" fill="#43553d" /><rect x="612.927" y="225.122" width="25.854" height="25.854" rx="4.654" fill="#43553d" /><rect x="690.488" y="225.122" width="25.854" height="25.854" rx="4.654" fill="#43553d" /><rect x="716.341" y="225.122" width="25.854" height="25.854" rx="4.654" fill="#43553d" /><rect x="742.195" y="225.122" width="25.854" height="25.854" rx="4.654" fill="#43553d" /><rect x="768.049" y="225.122" width="25.854" height="25.854" rx="4.654" fill="#43553d" /><rect x="793.902" y="225.122" width="25.854" height="25.854" rx="4.654" fill="#43553d" /><rect x="406.098" y="250.976" width="25.854" height="25.854" rx="4.654" fill="#43553d" /><rect x="431.951" y="250.976" width="25.854" height="25.854" rx="4.654" fill="#43553d" /><rect x="509.512" y="250.976" width="25.854" height="25.854" rx="4.654" fill="#43553d" /><rect x="561.22" y="250.976" width="25.854" height="25.854" rx="4.654" fill="#43553d" /><rect x="587.073" y="250.976" width="25.854" height="25.854" rx="4.654" fill="#43553d" /><rect x="612.927" y="250.976" width="25.854" height="25.854" rx="4.654" fill="#43553d" /><rect x="664.634" y="250.976" width="25.854" height="25.854" rx="4.654" fill="#43553d" /><rect x="690.488" y="250.976" width="25.854" height="25.854" rx="4.654" fill="#43553d" /><rect x="716.341" y="250.976" width="25.854" height="25.854" rx="4.654" fill="#43553d" /><rect x="768.049" y="250.976" width="25.854" height="25.854" rx="4.654" fill="#43553d" /><rect x="793.902" y="250.976" width="25.854" height="25.854" rx="4.654" fill="#43553d" /><rect x="380.244" y="276.829" width="25.854" height="25.854" rx="4.654" fill="#43553d" /><rect x="406.098" y="276.829" width="25.854" height="25.854" rx="4.654" fill="#43553d" /><rect x="457.805" y="276.829" width="25.854" height="25.854" rx="4.654" fill="#43553d" /><rect x="561.22" y="276.829" width="25.854" height="25.854" rx="4.654" fill="#43553d" /><rect x="587.073" y="276.829" width="25.854" height="25.854" rx="4.654" fill="#43553d" /><rect x="664.634" y="276.829" width="25.854" height="25.854" rx="4.654" fill="#43553d" /><rect x="690.488" y="276.829" width="25.854" height="25.854" rx="4.654" fill="#43553d" /><rect x="716.341" y="276.829" width="25.854" height="25.854" rx="4.654" fill="#43553d" /><rect x="768.049" y="276.829" width="25.854" height="25.854" rx="4.654" fill="#43553d" /><rect x="793.902" y="276.829" width="25.854" height="25.854" rx="4.654" fill="#43553d" /><rect x="406.098" y="302.683" width="25.854" height="25.854" rx="4.654" fill="#43553d" /><rect x="535.366" y="302.683" width="25.854" height="25.854" rx="4.654" fill="#43553d" /><rect x="561.22" y="302.683" width="25.854" height="25.854" rx="4.654" fill="#43553d" /><rect x="587.073" y="302.683" width="25.854" height="25.854" rx="4.654" fill="#43553d" /><rect x="638.78" y="302.683" width="25.854" height="25.854" rx="4.654" fill="#43553d" /><rect x="690.488" y="302.683" width="25.854" height="25.854" rx="4.654" fill="#43553d" /><rect x="716.341" y="302.683" width="25.854" height="25.854" rx="4.654" fill="#43553d" /><rect x="742.195" y="302.683" width="25.854" height="25.854" rx="4.654" fill="#43553d" /><rect x="380.244" y="328.537" width="25.854" height="25.854" rx="4.654" fill="#43553d" /><rect x="431.951" y="328.537" width="25.854" height="25.854" rx="4.654" fill="#43553d" /><rect x="483.659" y="328.537" width="25.854" height="25.854" rx="4.654" fill="#43553d" /><rect x="535.366" y="328.537" width="25.854" height="25.854" rx="4.654" fill="#43553d" /><rect x="587.073" y="328.537" width="25.854" height="25.854" rx="4.654" fill="#43553d" /><rect x="638.78" y="328.537" width="25.854" height="25.854" rx="4.654" fill="#43553d" /><rect x="690.488" y="328.537" width="25.854" height="25.854" rx="4.654" fill="#43553d" /><rect x="742.195" y="328.537" width="25.854" height="25.854" rx="4.654" fill="#43553d" /><rect x="793.902" y="328.537" width="25.854" height="25.854" rx="4.654" fill="#43553d" /><rect x="380.244" y="354.39" width="25.854" height="25.854" rx="4.654" fill="#43553d" /><rect x="431.951" y="354.39" width="25.854" height="25.854" rx="4.654" fill="#43553d" /><rect x="457.805" y="354.39" width="25.854" height="25.854" rx="4.654" fill="#43553d" /><rect x="483.659" y="354.39" width="25.854" height="25.854" rx="4.654" fill="#43553d" /><rect x="587.073" y="354.39" width="25.854" height="25.854" rx="4.654" fill="#43553d" /><rect x="664.634" y="354.39" width="25.854" height="25.854" rx="4.654" fill="#43553d" /><rect x="690.488" y="354.39" width="25.854" height="25.854" rx="4.654" fill="#43553d" /><rect x="302.683" y="380.244" width="25.854" height="25.854" rx="4.654" fill="#43553d" /><rect x="328.537" y="380.244" width="25.854" height="25.854" rx="4.654" fill="#43553d" /><rect x="431.951" y="380.244" width="25.854" height="25.854" rx="4.654" fill="#43553d" /><rect x="457.805" y="380.244" width="25.854" height="25.854" rx="4.654" fill="#43553d" /><rect x="483.659" y="380.244" width="25.854" height="25.854" rx="4.654" fill="#43553d" /><rect x="509.512" y="380.244" width="25.854" height="25.854" rx="4.654" fill="#43553d" /><rect x="561.22" y="380.244" width="25.854" height="25.854" rx="4.654" fill="#43553d" /><rect x="638.78" y="380.244" width="25.854" height="25.854" rx="4.654" fill="#43553d" /><rect x="664.634" y="380.244" width="25.854" height="25.854" rx="4.654" fill="#43553d" /><rect x="690.488" y="380.244" width="25.854" height="25.854" rx="4.654" fill="#43553d" /><rect x="742.195" y="380.244" width="25.854" height="25.854" rx="4.654" fill="#43553d" /><rect x="793.902" y="380.244" width="25.854" height="25.854" rx="4.654" fill="#43553d" /><rect x="845.61" y="380.244" width="25.854" height="25.854" rx="4.654" fill="#43553d" /><rect x="897.317" y="380.244" width="25.854" height="25.854" rx="4.654" fill="#43553d" /><rect x="949.024" y="380.244" width="25.854" height="25.854" rx="4.654" fill="#43553d" /><rect x="1000.732" y="380.244" width="25.854" height="25.854" rx="4.654" fill="#43553d" /><rect x="173.415" y="406.098" width="25.854" height="25.854" rx="4.654" fill="#43553d" /><rect x="199.268" y="406.098" width="25.854" height="25.854" rx="4.654" fill="#43553d" /><rect x="225.122" y="406.098" width="25.854" height="25.854" rx="4.654" fill="#43553d" /><rect x="276.829" y="406.098" width="25.854" height="25.854" rx="4.654" fill="#43553d" /><rect x="354.39" y="406.098" width="25.854" height="25.854" rx="4.654" fill="#43553d" /><rect x="406.098" y="406.098" width="25.854" height="25.854" rx="4.654" fill="#43553d" /><rect x="587.073" y="406.098" width="25.854" height="25.854" rx="4.654" fill="#43553d" /><rect x="664.634" y="406.098" width="25.854" height="25.854" rx="4.654" fill="#43553d" /><rect x="716.341" y="406.098" width="25.854" height="25.854" rx="4.654" fill="#43553d" /><rect x="742.195" y="406.098" width="25.854" height="25.854" rx="4.654" fill="#43553d" /><rect x="768.049" y="406.098" width="25.854" height="25.854" rx="4.654" fill="#43553d" /><rect x="819.756" y="406.098" width="25.854" height="25.854" rx="4.654" fill="#43553d" /><rect x="871.463" y="406.098" width="25.854" height="25.854" rx="4.654" fill="#43553d" /><rect x="897.317" y="406.098" width="25.854" height="25.854" rx="4.654" fill="#43553d" /><rect x="923.171" y="406.098" width="25.854" height="25.854" rx="4.654" fill="#43553d" /><rect x="225.122" y="431.951" width="25.854" height="25.854" rx="4.654" fill="#43553d" /><rect x="250.976" y="431.951" width="25.854" height="25.854" rx="4.654" fill="#43553d" /><rect x="302.683" y="431.951" width="25.854" height="25.854" rx="4.654" fill="#43553d" /><rect x="328.537" y="431.951" width="25.854" height="25.854" rx="4.654" fill="#43553d" /><rect x="406.098" y="431.951" width="25.854" height="25.854" rx="4.654" fill="#43553d" /><rect x="483.659" y="431.951" width="25.854" height="25.854" rx="4.654" fill="#43553d" /><rect x="561.22" y="431.951" width="25.854" height="25.854" rx="4.654" fill="#43553d" /><rect x="638.78" y="431.951" width="25.854" height="25.854" rx="4.654" fill="#43553d" /><rect x="742.195" y="431.951" width="25.854" height="25.854" rx="4.654" fill="#43553d" /><rect x="793.902" y="431.951" width="25.854" height="25.854" rx="4.654" fill="#43553d" /><rect x="845.61" y="431.951" width="25.854" height="25.854" rx="4.654" fill="#43553d" /><rect x="871.463" y="431.951" width="25.854" height="25.854" rx="4.654" fill="#43553d" /><rect x="923.171" y="431.951" width="25.854" height="25.854" rx="4.654" fill="#43553d" /><rect x="974.878" y="431.951" width="25.854" height="25.854" rx="4.654" fill="#43553d" /><rect x="250.976" y="457.805" width="25.854" height="25.854" rx="4.654" fill="#43553d" /><rect x="276.829" y="457.805" width="25.854" height="25.854" rx="4.654" fill="#43553d" /><rect x="354.39" y="457.805" width="25.854" height="25.854" rx="4.654" fill="#43553d" /><rect x="431.951" y="457.805" width="25.854" height="25.854" rx="4.654" fill="#43553d" /><rect x="457.805" y="457.805" width="25.854" height="25.854" rx="4.654" fill="#43553d" /><rect x="483.659" y="457.805" width="25.854" height="25.854" rx="4.654" fill="#43553d" /><rect x="561.22" y="457.805" width="25.854" height="25.854" rx="4.654" fill="#43553d" /><rect x="612.927" y="457.805" width="25.854" height="25.854" rx="4.654" fill="#43553d" /><rect x="664.634" y="457.805" width="25.854" height="25.854" rx="4.654" fill="#43553d" /><rect x="690.488" y="457.805" width="25.854" height="25.854" rx="4.654" fill="#43553d" /><rect x="742.195" y="457.805" width="25.854" height="25.854" rx="4.654" fill="#43553d" /><rect x="819.756" y="457.805" width="25.854" height="25.854" rx="4.654" fill="#43553d" /><rect x="871.463" y="457.805" width="25.854" height="25.854" rx="4.654" fill="#43553d" /><rect x="923.171" y="457.805" width="25.854" height="25.854" rx="4.654" fill="#43553d" /><rect x="949.024" y="457.805" width="25.854" height="25.854" rx="4.654" fill="#43553d" /><rect x="974.878" y="457.805" width="25.854" height="25.854" rx="4.654" fill="#43553d" /><rect x="199.268" y="483.659" width="25.854" height="25.854" rx="4.654" fill="#43553d" /><rect x="250.976" y="483.659" width="25.854" height="25.854" rx="4.654" fill="#43553d" /><rect x="276.829" y="483.659" width="25.854" height="25.854" rx="4.654" fill="#43553d" /><rect x="302.683" y="483.659" width="25.854" height="25.854" rx="4.654" fill="#43553d" /><rect x="328.537" y="483.659" width="25.854" height="25.854" rx="4.654" fill="#43553d" /><rect x="354.39" y="483.659" width="25.854" height="25.854" rx="4.654" fill="#43553d" /><rect x="380.244" y="483.659" width="25.854" height="25.854" rx="4.654" fill="#43553d" /><rect x="509.512" y="483.659" width="25.854" height="25.854" rx="4.654" fill="#43553d" /><rect x="535.366" y="483.659" width="25.854" height="25.854" rx="4.654" fill="#43553d" /><rect x="587.073" y="483.659" width="25.854" height="25.854" rx="4.654" fill="#43553d" /><rect x="612.927" y="483.659" width="25.854" height="25.854" rx="4.654" fill="#43553d" /><rect x="716.341" y="483.659" width="25.854" height="25.854" rx="4.654" fill="#43553d" /><rect x="742.195" y="483.659" width="25.854" height="25.854" rx="4.654" fill="#43553d" /><rect x="768.049" y="483.659" width="25.854" height="25.854" rx="4.654" fill="#43553d" /><rect x="793.902" y="483.659" width="25.854" height="25.854" rx="4.654" fill="#43553d" /><rect x="845.61" y="483.659" width="25.854" height="25.854" rx="4.654" fill="#43553d" /><rect x="871.463" y="483.659" width="25.854" height="25.854" rx="4.654" fill="#43553d" /><rect x="923.171" y="483.659" width="25.854" height="25.854" rx="4.654" fill="#43553d" /><rect x="173.415" y="509.512" width="25.854" height="25.854" rx="4.654" fill="#43553d" /><rect x="225.122" y="509.512" width="25.854" height="25.854" rx="4.654" fill="#43553d" /><rect x="276.829" y="509.512" width="25.854" height="25.854" rx="4.654" fill="#43553d" /><rect x="354.39" y="509.512" width="25.854" height="25.854" rx="4.654" fill="#43553d" /><rect x="457.805" y="509.512" width="25.854" height="25.854" rx="4.654" fill="#43553d" /><rect x="483.659" y="509.512" width="25.854" height="25.854" rx="4.654" fill="#43553d" /><rect x="535.366" y="509.512" width="25.854" height="25.854" rx="4.654" fill="#43553d" /><rect x="561.22" y="509.512" width="25.854" height="25.854" rx="4.654" fill="#43553d" /><rect x="587.073" y="509.512" width="25.854" height="25.854" rx="4.654" fill="#43553d" /><rect x="664.634" y="509.512" width="25.854" height="25.854" rx="4.654" fill="#43553d" /><rect x="716.341" y="509.512" width="25.854" height="25.854" rx="4.654" fill="#43553d" /><rect x="768.049" y="509.512" width="25.854" height="25.854" rx="4.654" fill="#43553d" /><rect x="845.61" y="509.512" width="25.854" height="25.854" rx="4.654" fill="#43553d" /><rect x="923.171" y="509.512" width="25.854" height="25.854" rx="4.654" fill="#43553d" /><rect x="949.024" y="509.512" width="25.854" height="25.854" rx="4.654" fill="#43553d" /><rect x="1000.732" y="509.512" width="25.854" height="25.854" rx="4.654" fill="#43553d" /><rect x="173.415" y="535.366" width="25.854" height="25.854" rx="4.654" fill="#43553d" /><rect x="250.976" y="535.366" width="25.854" height="25.854" rx="4.654" fill="#43553d" /><rect x="302.683" y="535.366" width="25.854" height="25.854" rx="4.654" fill="#43553d" /><rect x="328.537" y="535.366" width="25.854" height="25.854" rx="4.654" fill="#43553d" /><rect x="354.39" y="535.366" width="25.854" height="25.854" rx="4.654" fill="#43553d" /><rect x="406.098" y="535.366" width="25.854" height="25.854" rx="4.654" fill="#43553d" /><rect x="483.659" y="535.366" width="25.854" height="25.854" rx="4.654" fill="#43553d" /><rect x="509.512" y="535.366" width="25.854" height="25.854" rx="4.654" fill="#43553d" /><rect x="535.366" y="535.366" width="25.854" height="25.854" rx="4.654" fill="#43553d" /><rect x="638.78" y="535.366" width="25.854" height="25.854" rx="4.654" fill="#43553d" /><rect x="664.634" y="535.366" width="25.854" height="25.854" rx="4.654" fill="#43553d" /><rect x="690.488" y="535.366" width="25.854" height="25.854" rx="4.654" fill="#43553d" /><rect x="742.195" y="535.366" width="25.854" height="25.854" rx="4.654" fill="#43553d" /><rect x="819.756" y="535.366" width="25.854" height="25.854" rx="4.654" fill="#43553d" /><rect x="845.61" y="535.366" width="25.854" height="25.854" rx="4.654" fill="#43553d" /><rect x="871.463" y="535.366" width="25.854" height="25.854" rx="4.654" fill="#43553d" /><rect x="897.317" y="535.366" width="25.854" height="25.854" rx="4.654" fill="#43553d" /><rect x="949.024" y="535.366" width="25.854" height="25.854" rx="4.654" fill="#43553d" /><rect x="974.878" y="535.366" width="25.854" height="25.854" rx="4.654" fill="#43553d" /><rect x="173.415" y="561.22" width="25.854" height="25.854" rx="4.654" fill="#43553d" /><rect x="199.268" y="561.22" width="25.854" height="25.854" rx="4.654" fill="#43553d" /><rect x="250.976" y="561.22" width="25.854" height="25.854" rx="4.654" fill="#43553d" /><rect x="354.39" y="561.22" width="25.854" height="25.854" rx="4.654" fill="#43553d" /><rect x="380.244" y="561.22" width="25.854" height="25.854" rx="4.654" fill="#43553d" /><rect x="457.805" y="561.22" width="25.854" height="25.854" rx="4.654" fill="#43553d" /><rect x="612.927" y="561.22" width="25.854" height="25.854" rx="4.654" fill="#43553d" /><rect x="638.78" y="561.22" width="25.854" height="25.854" rx="4.654" fill="#43553d" /><rect x="768.049" y="561.22" width="25.854" height="25.854" rx="4.654" fill="#43553d" /><rect x="897.317" y="561.22" width="25.854" height="25.854" rx="4.654" fill="#43553d" /><rect x="923.171" y="561.22" width="25.854" height="25.854" rx="4.654" fill="#43553d" /><rect x="949.024" y="561.22" width="25.854" height="25.854" rx="4.654" fill="#43553d" /><rect x="974.878" y="561.22" width="25.854" height="25.854" rx="4.654" fill="#43553d" /><rect x="1000.732" y="561.22" width="25.854" height="25.854" rx="4.654" fill="#43553d" /><rect x="173.415" y="587.073" width="25.854" height="25.854" rx="4.654" fill="#43553d" /><rect x="199.268" y="587.073" width="25.854" height="25.854" rx="4.654" fill="#43553d" /><rect x="225.122" y="587.073" width="25.854" height="25.854" rx="4.654" fill="#43553d" /><rect x="328.537" y="587.073" width="25.854" height="25.854" rx="4.654" fill="#43553d" /><rect x="354.39" y="587.073" width="25.854" height="25.854" rx="4.654" fill="#43553d" /><rect x="380.244" y="587.073" width="25.854" height="25.854" rx="4.654" fill="#43553d" /><rect x="431.951" y="587.073" width="25.854" height="25.854" rx="4.654" fill="#43553d" /><rect x="457.805" y="587.073" width="25.854" height="25.854" rx="4.654" fill="#43553d" /><rect x="509.512" y="587.073" width="25.854" height="25.854" rx="4.654" fill="#43553d" /><rect x="535.366" y="587.073" width="25.854" height="25.854" rx="4.654" fill="#43553d" /><rect x="587.073" y="587.073" width="25.854" height="25.854" rx="4.654" fill="#43553d" /><rect x="638.78" y="587.073" width="25.854" height="25.854" rx="4.654" fill="#43553d" /><rect x="768.049" y="587.073" width="25.854" height="25.854" rx="4.654" fill="#43553d" /><rect x="871.463" y="587.073" width="25.854" height="25.854" rx="4.654" fill="#43553d" /><rect x="897.317" y="587.073" width="25.854" height="25.854" rx="4.654" fill="#43553d" /><rect x="199.268" y="612.927" width="25.854" height="25.854" rx="4.654" fill="#43553d" /><rect x="225.122" y="612.927" width="25.854" height="25.854" rx="4.654" fill="#43553d" /><rect x="302.683" y="612.927" width="25.854" height="25.854" rx="4.654" fill="#43553d" /><rect x="380.244" y="612.927" width="25.854" height="25.854" rx="4.654" fill="#43553d" /><rect x="535.366" y="612.927" width="25.854" height="25.854" rx="4.654" fill="#43553d" /><rect x="561.22" y="612.927" width="25.854" height="25.854" rx="4.654" fill="#43553d" /><rect x="587.073" y="612.927" width="25.854" height="25.854" rx="4.654" fill="#43553d" /><rect x="612.927" y="612.927" width="25.854" height="25.854" rx="4.654" fill="#43553d" /><rect x="638.78" y="612.927" width="25.854" height="25.854" rx="4.654" fill="#43553d" /><rect x="664.634" y="612.927" width="25.854" height="25.854" rx="4.654" fill="#43553d" /><rect x="716.341" y="612.927" width="25.854" height="25.854" rx="4.654" fill="#43553d" /><rect x="768.049" y="612.927" width="25.854" height="25.854" rx="4.654" fill="#43553d" /><rect x="793.902" y="612.927" width="25.854" height="25.854" rx="4.654" fill="#43553d" /><rect x="845.61" y="612.927" width="25.854" height="25.854" rx="4.654" fill="#43553d" /><rect x="871.463" y="612.927" width="25.854" height="25.854" rx="4.654" fill="#43553d" /><rect x="974.878" y="612.927" width="25.854" height="25.854" rx="4.654" fill="#43553d" /><rect x="1000.732" y="612.927" width="25.854" height="25.854" rx="4.654" fill="#43553d" /><rect x="173.415" y="638.78" width="25.854" height="25.854" rx="4.654" fill="#43553d" /><rect x="199.268" y="638.78" width="25.854" height="25.854" rx="4.654" fill="#43553d" /><rect x="225.122" y="638.78" width="25.854" height="25.854" rx="4.654" fill="#43553d" /><rect x="276.829" y="638.78" width="25.854" height="25.854" rx="4.654" fill="#43553d" /><rect x="302.683" y="638.78" width="25.854" height="25.854" rx="4.654" fill="#43553d" /><rect x="328.537" y="638.78" width="25.854" height="25.854" rx="4.654" fill="#43553d" /><rect x="354.39" y="638.78" width="25.854" height="25.854" rx="4.654" fill="#43553d" /><rect x="380.244" y="638.78" width="25.854" height="25.854" rx="4.654" fill="#43553d" /><rect x="406.098" y="638.78" width="25.854" height="25.854" rx="4.654" fill="#43553d" /><rect x="457.805" y="638.78" width="25.854" height="25.854" rx="4.654" fill="#43553d" /><rect x="483.659" y="638.78" width="25.854" height="25.854" rx="4.654" fill="#43553d" /><rect x="509.512" y="638.78" width="25.854" height="25.854" rx="4.654" fill="#43553d" /><rect x="561.22" y="638.78" width="25.854" height="25.854" rx="4.654" fill="#43553d" /><rect x="587.073" y="638.78" width="25.854" height="25.854" rx="4.654" fill="#43553d" /><rect x="664.634" y="638.78" width="25.854" height="25.854" rx="4.654" fill="#43553d" /><rect x="716.341" y="638.78" width="25.854" height="25.854" rx="4.654" fill="#43553d" /><rect x="742.195" y="638.78" width="25.854" height="25.854" rx="4.654" fill="#43553d" /><rect x="768.049" y="638.78" width="25.854" height="25.854" rx="4.654" fill="#43553d" /><rect x="897.317" y="638.78" width="25.854" height="25.854" rx="4.654" fill="#43553d" /><rect x="923.171" y="638.78" width="25.854" height="25.854" rx="4.654" fill="#43553d" /><rect x="949.024" y="638.78" width="25.854" height="25.854" rx="4.654" fill="#43553d" /><rect x="1000.732" y="638.78" width="25.854" height="25.854" rx="4.654" fill="#43553d" /><rect x="173.415" y="664.634" width="25.854" height="25.854" rx="4.654" fill="#43553d" /><rect x="199.268" y="664.634" width="25.854" height="25.854" rx="4.654" fill="#43553d" /><rect x="276.829" y="664.634" width="25.854" height="25.854" rx="4.654" fill="#43553d" /><rect x="302.683" y="664.634" width="25.854" height="25.854" rx="4.654" fill="#43553d" /><rect x="354.39" y="664.634" width="25.854" height="25.854" rx="4.654" fill="#43553d" /><rect x="406.098" y="664.634" width="25.854" height="25.854" rx="4.654" fill="#43553d" /><rect x="431.951" y="664.634" width="25.854" height="25.854" rx="4.654" fill="#43553d" /><rect x="483.659" y="664.634" width="25.854" height="25.854" rx="4.654" fill="#43553d" /><rect x="509.512" y="664.634" width="25.854" height="25.854" rx="4.654" fill="#43553d" /><rect x="561.22" y="664.634" width="25.854" height="25.854" rx="4.654" fill="#43553d" /><rect x="612.927" y="664.634" width="25.854" height="25.854" rx="4.654" fill="#43553d" /><rect x="664.634" y="664.634" width="25.854" height="25.854" rx="4.654" fill="#43553d" /><rect x="690.488" y="664.634" width="25.854" height="25.854" rx="4.654" fill="#43553d" /><rect x="768.049" y="664.634" width="25.854" height="25.854" rx="4.654" fill="#43553d" /><rect x="793.902" y="664.634" width="25.854" height="25.854" rx="4.654" fill="#43553d" /><rect x="845.61" y="664.634" width="25.854" height="25.854" rx="4.654" fill="#43553d" /><rect x="923.171" y="664.634" width="25.854" height="25.854" rx="4.654" fill="#43553d" /><rect x="949.024" y="664.634" width="25.854" height="25.854" rx="4.654" fill="#43553d" /><rect x="974.878" y="664.634" width="25.854" height="25.854" rx="4.654" fill="#43553d" /><rect x="1000.732" y="664.634" width="25.854" height="25.854" rx="4.654" fill="#43553d" /><rect x="250.976" y="690.488" width="25.854" height="25.854" rx="4.654" fill="#43553d" /><rect x="276.829" y="690.488" width="25.854" height="25.854" rx="4.654" fill="#43553d" /><rect x="328.537" y="690.488" width="25.854" height="25.854" rx="4.654" fill="#43553d" /><rect x="354.39" y="690.488" width="25.854" height="25.854" rx="4.654" fill="#43553d" /><rect x="431.951" y="690.488" width="25.854" height="25.854" rx="4.654" fill="#43553d" /><rect x="457.805" y="690.488" width="25.854" height="25.854" rx="4.654" fill="#43553d" /><rect x="483.659" y="690.488" width="25.854" height="25.854" rx="4.654" fill="#43553d" /><rect x="509.512" y="690.488" width="25.854" height="25.854" rx="4.654" fill="#43553d" /><rect x="561.22" y="690.488" width="25.854" height="25.854" rx="4.654" fill="#43553d" /><rect x="638.78" y="690.488" width="25.854" height="25.854" rx="4.654" fill="#43553d" /><rect x="664.634" y="690.488" width="25.854" height="25.854" rx="4.654" fill="#43553d" /><rect x="690.488" y="690.488" width="25.854" height="25.854" rx="4.654" fill="#43553d" /><rect x="742.195" y="690.488" width="25.854" height="25.854" rx="4.654" fill="#43553d" /><rect x="793.902" y="690.488" width="25.854" height="25.854" rx="4.654" fill="#43553d" /><rect x="819.756" y="690.488" width="25.854" height="25.854" rx="4.654" fill="#43553d" /><rect x="871.463" y="690.488" width="25.854" height="25.854" rx="4.654" fill="#43553d" /><rect x="897.317" y="690.488" width="25.854" height="25.854" rx="4.654" fill="#43553d" /><rect x="923.171" y="690.488" width="25.854" height="25.854" rx="4.654" fill="#43553d" /><rect x="974.878" y="690.488" width="25.854" height="25.854" rx="4.654" fill="#43553d" /><rect x="1000.732" y="690.488" width="25.854" height="25.854" rx="4.654" fill="#43553d" /><rect x="173.415" y="716.341" width="25.854" height="25.854" rx="4.654" fill="#43553d" /><rect x="225.122" y="716.341" width="25.854" height="25.854" rx="4.654" fill="#43553d" /><rect x="250.976" y="716.341" width="25.854" height="25.854" rx="4.654" fill="#43553d" /><rect x="276.829" y="716.341" width="25.854" height="25.854" rx="4.654" fill="#43553d" /><rect x="302.683" y="716.341" width="25.854" height="25.854" rx="4.654" fill="#43553d" /><rect x="406.098" y="716.341" width="25.854" height="25.854" rx="4.654" fill="#43553d" /><rect x="457.805" y="716.341" width="25.854" height="25.854" rx="4.654" fill="#43553d" /><rect x="535.366" y="716.341" width="25.854" height="25.854" rx="4.654" fill="#43553d" /><rect x="561.22" y="716.341" width="25.854" height="25.854" rx="4.654" fill="#43553d" /><rect x="587.073" y="716.341" width="25.854" height="25.854" rx="4.654" fill="#43553d" /><rect x="638.78" y="716.341" width="25.854" height="25.854" rx="4.654" fill="#43553d" /><rect x="664.634" y="716.341" width="25.854" height="25.854" rx="4.654" fill="#43553d" /><rect x="716.341" y="716.341" width="25.854" height="25.854" rx="4.654" fill="#43553d" /><rect x="742.195" y="716.341" width="25.854" height="25.854" rx="4.654" fill="#43553d" /><rect x="768.049" y="716.341" width="25.854" height="25.854" rx="4.654" fill="#43553d" /><rect x="819.756" y="716.341" width="25.854" height="25.854" rx="4.654" fill="#43553d" /><rect x="871.463" y="716.341" width="25.854" height="25.854" rx="4.654" fill="#43553d" /><rect x="897.317" y="716.341" width="25.854" height="25.854" rx="4.654" fill="#43553d" /><rect x="949.024" y="716.341" width="25.854" height="25.854" rx="4.654" fill="#43553d" /><rect x="173.415" y="742.195" width="25.854" height="25.854" rx="4.654" fill="#43553d" /><rect x="250.976" y="742.195" width="25.854" height="25.854" rx="4.654" fill="#43553d" /><rect x="302.683" y="742.195" width="25.854" height="25.854" rx="4.654" fill="#43553d" /><rect x="328.537" y="742.195" width="25.854" height="25.854" rx="4.654" fill="#43553d" /><rect x="354.39" y="742.195" width="25.854" height="25.854" rx="4.654" fill="#43553d" /><rect x="406.098" y="742.195" width="25.854" height="25.854" rx="4.654" fill="#43553d" /><rect x="457.805" y="742.195" width="25.854" height="25.854" rx="4.654" fill="#43553d" /><rect x="587.073" y="742.195" width="25.854" height="25.854" rx="4.654" fill="#43553d" /><rect x="690.488" y="742.195" width="25.854" height="25.854" rx="4.654" fill="#43553d" /><rect x="716.341" y="742.195" width="25.854" height="25.854" rx="4.654" fill="#43553d" /><rect x="742.195" y="742.195" width="25.854" height="25.854" rx="4.654" fill="#43553d" /><rect x="871.463" y="742.195" width="25.854" height="25.854" rx="4.654" fill="#43553d" /><rect x="897.317" y="742.195" width="25.854" height="25.854" rx="4.654" fill="#43553d" /><rect x="923.171" y="742.195" width="25.854" height="25.854" rx="4.654" fill="#43553d" /><rect x="949.024" y="742.195" width="25.854" height="25.854" rx="4.654" fill="#43553d" /><rect x="974.878" y="742.195" width="25.854" height="25.854" rx="4.654" fill="#43553d" /><rect x="173.415" y="768.049" width="25.854" height="25.854" rx="4.654" fill="#43553d" /><rect x="225.122" y="768.049" width="25.854" height="25.854" rx="4.654" fill="#43553d" /><rect x="276.829" y="768.049" width="25.854" height="25.854" rx="4.654" fill="#43553d" /><rect x="354.39" y="768.049" width="25.854" height="25.854" rx="4.654" fill="#43553d" /><rect x="380.244" y="768.049" width="25.854" height="25.854" rx="4.654" fill="#43553d" /><rect x="431.951" y="768.049" width="25.854" height="25.854" rx="4.654" fill="#43553d" /><rect x="457.805" y="768.049" width="25.854" height="25.854" rx="4.654" fill="#43553d" /><rect x="535.366" y="768.049" width="25.854" height="25.854" rx="4.654" fill="#43553d" /><rect x="561.22" y="768.049" width="25.854" height="25.854" rx="4.654" fill="#43553d" /><rect x="587.073" y="768.049" width="25.854" height="25.854" rx="4.654" fill="#43553d" /><rect x="664.634" y="768.049" width="25.854" height="25.854" rx="4.654" fill="#43553d" /><rect x="690.488" y="768.049" width="25.854" height="25.854" rx="4.654" fill="#43553d" /><rect x="742.195" y="768.049" width="25.854" height="25.854" rx="4.654" fill="#43553d" /><rect x="768.049" y="768.049" width="25.854" height="25.854" rx="4.654" fill="#43553d" /><rect x="793.902" y="768.049" width="25.854" height="25.854" rx="4.654" fill="#43553d" /><rect x="923.171" y="768.049" width="25.854" height="25.854" rx="4.654" fill="#43553d" /><rect x="949.024" y="768.049" width="25.854" height="25.854" rx="4.654" fill="#43553d" /><rect x="1000.732" y="768.049" width="25.854" height="25.854" rx="4.654" fill="#43553d" /><rect x="173.415" y="793.902" width="25.854" height="25.854" rx="4.654" fill="#43553d" /><rect x="199.268" y="793.902" width="25.854" height="25.854" rx="4.654" fill="#43553d" /><rect x="250.976" y="793.902" width="25.854" height="25.854" rx="4.654" fill="#43553d" /><rect x="276.829" y="793.902" width="25.854" height="25.854" rx="4.654" fill="#43553d" /><rect x="302.683" y="793.902" width="25.854" height="25.854" rx="4.654" fill="#43553d" /><rect x="328.537" y="793.902" width="25.854" height="25.854" rx="4.654" fill="#43553d" /><rect x="406.098" y="793.902" width="25.854" height="25.854" rx="4.654" fill="#43553d" /><rect x="483.659" y="793.902" width="25.854" height="25.854" rx="4.654" fill="#43553d" /><rect x="509.512" y="793.902" width="25.854" height="25.854" rx="4.654" fill="#43553d" /><rect x="587.073" y="793.902" width="25.854" height="25.854" rx="4.654" fill="#43553d" /><rect x="612.927" y="793.902" width="25.854" height="25.854" rx="4.654" fill="#43553d" /><rect x="638.78" y="793.902" width="25.854" height="25.854" rx="4.654" fill="#43553d" /><rect x="690.488" y="793.902" width="25.854" height="25.854" rx="4.654" fill="#43553d" /><rect x="768.049" y="793.902" width="25.854" height="25.854" rx="4.654" fill="#43553d" /><rect x="793.902" y="793.902" width="25.854" height="25.854" rx="4.654" fill="#43553d" /><rect x="819.756" y="793.902" width="25.854" height="25.854" rx="4.654" fill="#43553d" /><rect x="845.61" y="793.902" width="25.854" height="25.854" rx="4.654" fill="#43553d" /><rect x="871.463" y="793.902" width="25.854" height="25.854" rx="4.654" fill="#43553d" /><rect x="897.317" y="793.902" width="25.854" height="25.854" rx="4.654" fill="#43553d" /><rect x="974.878" y="793.902" width="25.854" height="25.854" rx="4.654" fill="#43553d" /><rect x="380.244" y="819.756" width="25.854" height="25.854" rx="4.654" fill="#43553d" /><rect x="406.098" y="819.756" width="25.854" height="25.854" rx="4.654" fill="#43553d" /><rect x="483.659" y="819.756" width="25.854" height="25.854" rx="4.654" fill="#43553d" /><rect x="509.512" y="819.756" width="25.854" height="25.854" rx="4.654" fill="#43553d" /><rect x="561.22" y="819.756" width="25.854" height="25.854" rx="4.654" fill="#43553d" /><rect x="690.488" y="819.756" width="25.854" height="25.854" rx="4.654" fill="#43553d" /><rect x="716.341" y="819.756" width="25.854" height="25.854" rx="4.654" fill="#43553d" /><rect x="768.049" y="819.756" width="25.854" height="25.854" rx="4.654" fill="#43553d" /><rect x="793.902" y="819.756" width="25.854" height="25.854" rx="4.654" fill="#43553d" /><rect x="897.317" y="819.756" width="25.854" height="25.854" rx="4.654" fill="#43553d" /><rect x="1000.732" y="819.756" width="25.854" height="25.854" rx="4.654" fill="#43553d" /><rect x="457.805" y="845.61" width="25.854" height="25.854" rx="4.654" fill="#43553d" /><rect x="509.512" y="845.61" width="25.854" height="25.854" rx="4.654" fill="#43553d" /><rect x="535.366" y="845.61" width="25.854" height="25.854" rx="4.654" fill="#43553d" /><rect x="587.073" y="845.61" width="25.854" height="25.854" rx="4.654" fill="#43553d" /><rect x="638.78" y="845.61" width="25.854" height="25.854" rx="4.654" fill="#43553d" /><rect x="664.634" y="845.61" width="25.854" height="25.854" rx="4.654" fill="#43553d" /><rect x="742.195" y="845.61" width="25.854" height="25.854" rx="4.654" fill="#43553d" /><rect x="768.049" y="845.61" width="25.854" height="25.854" rx="4.654" fill="#43553d" /><rect x="793.902" y="845.61" width="25.854" height="25.854" rx="4.654" fill="#43553d" /><rect x="845.61" y="845.61" width="25.854" height="25.854" rx="4.654" fill="#43553d" /><rect x="897.317" y="845.61" width="25.854" height="25.854" rx="4.654" fill="#43553d" /><rect x="949.024" y="845.61" width="25.854" height="25.854" rx="4.654" fill="#43553d" /><rect x="974.878" y="845.61" width="25.854" height="25.854" rx="4.654" fill="#43553d" /><rect x="380.244" y="871.463" width="25.854" height="25.854" rx="4.654" fill="#43553d" /><rect x="406.098" y="871.463" width="25.854" height="25.854" rx="4.654" fill="#43553d" /><rect x="431.951" y="871.463" width="25.854" height="25.854" rx="4.654" fill="#43553d" /><rect x="509.512" y="871.463" width="25.854" height="25.854" rx="4.654" fill="#43553d" /><rect x="612.927" y="871.463" width="25.854" height="25.854" rx="4.654" fill="#43553d" /><rect x="638.78" y="871.463" width="25.854" height="25.854" rx="4.654" fill="#43553d" /><rect x="690.488" y="871.463" width="25.854" height="25.854" rx="4.654" fill="#43553d" /><rect x="716.341" y="871.463" width="25.854" height="25.854" rx="4.654" fill="#43553d" /><rect x="742.195" y="871.463" width="25.854" height="25.854" rx="4.654" fill="#43553d" /><rect x="768.049" y="871.463" width="25.854" height="25.854" rx="4.654" fill="#43553d" /><rect x="793.902" y="871.463" width="25.854" height="25.854" rx="4.654" fill="#43553d" /><rect x="897.317" y="871.463" width="25.854" height="25.854" rx="4.654" fill="#43553d" /><rect x="923.171" y="871.463" width="25.854" height="25.854" rx="4.654" fill="#43553d" /><rect x="949.024" y="871.463" width="25.854" height="25.854" rx="4.654" fill="#43553d" /><rect x="974.878" y="871.463" width="25.854" height="25.854" rx="4.654" fill="#43553d" /><rect x="457.805" y="897.317" width="25.854" height="25.854" rx="4.654" fill="#43553d" /><rect x="535.366" y="897.317" width="25.854" height="25.854" rx="4.654" fill="#43553d" /><rect x="561.22" y="897.317" width="25.854" height="25.854" rx="4.654" fill="#43553d" /><rect x="638.78" y="897.317" width="25.854" height="25.854" rx="4.654" fill="#43553d" /><rect x="664.634" y="897.317" width="25.854" height="25.854" rx="4.654" fill="#43553d" /><rect x="716.341" y="897.317" width="25.854" height="25.854" rx="4.654" fill="#43553d" /><rect x="742.195" y="897.317" width="25.854" height="25.854" rx="4.654" fill="#43553d" /><rect x="793.902" y="897.317" width="25.854" height="25.854" rx="4.654" fill="#43553d" /><rect x="819.756" y="897.317" width="25.854" height="25.854" rx="4.654" fill="#43553d" /><rect x="845.61" y="897.317" width="25.854" height="25.854" rx="4.654" fill="#43553d" /><rect x="871.463" y="897.317" width="25.854" height="25.854" rx="4.654" fill="#43553d" /><rect x="897.317" y="897.317" width="25.854" height="25.854" rx="4.654" fill="#43553d" /><rect x="974.878" y="897.317" width="25.854" height="25.854" rx="4.654" fill="#43553d" /><rect x="1000.732" y="897.317" width="25.854" height="25.854" rx="4.654" fill="#43553d" /><rect x="457.805" y="923.171" width="25.854" height="25.854" rx="4.654" fill="#43553d" /><rect x="561.22" y="923.171" width="25.854" height="25.854" rx="4.654" fill="#43553d" /><rect x="638.78" y="923.171" width="25.854" height="25.854" rx="4.654" fill="#43553d" /><rect x="819.756" y="923.171" width="25.854" height="25.854" rx="4.654" fill="#43553d" /><rect x="871.463" y="923.171" width="25.854" height="25.854" rx="4.654" fill="#43553d" /><rect x="897.317" y="923.171" width="25.854" height="25.854" rx="4.654" fill="#43553d" /><rect x="923.171" y="923.171" width="25.854" height="25.854" rx="4.654" fill="#43553d" /><rect x="1000.732" y="923.171" width="25.854" height="25.854" rx="4.654" fill="#43553d" /><rect x="406.098" y="949.024" width="25.854" height="25.854" rx="4.654" fill="#43553d" /><rect x="483.659" y="949.024" width="25.854" height="25.854" rx="4.654" fill="#43553d" /><rect x="509.512" y="949.024" width="25.854" height="25.854" rx="4.654" fill="#43553d" /><rect x="612.927" y="949.024" width="25.854" height="25.854" rx="4.654" fill="#43553d" /><rect x="638.78" y="949.024" width="25.854" height="25.854" rx="4.654" fill="#43553d" /><rect x="716.341" y="949.024" width="25.854" height="25.854" rx="4.654" fill="#43553d" /><rect x="897.317" y="949.024" width="25.854" height="25.854" rx="4.654" fill="#43553d" /><rect x="974.878" y="949.024" width="25.854" height="25.854" rx="4.654" fill="#43553d" /><rect x="1000.732" y="949.024" width="25.854" height="25.854" rx="4.654" fill="#43553d" /><rect x="431.951" y="974.878" width="25.854" height="25.854" rx="4.654" fill="#43553d" /><rect x="509.512" y="974.878" width="25.854" height="25.854" rx="4.654" fill="#43553d" /><rect x="535.366" y="974.878" width="25.854" height="25.854" rx="4.654" fill="#43553d" /><rect x="587.073" y="974.878" width="25.854" height="25.854" rx="4.654" fill="#43553d" /><rect x="612.927" y="974.878" width="25.854" height="25.854" rx="4.654" fill="#43553d" /><rect x="638.78" y="974.878" width="25.854" height="25.854" rx="4.654" fill="#43553d" /><rect x="664.634" y="974.878" width="25.854" height="25.854" rx="4.654" fill="#43553d" /><rect x="716.341" y="974.878" width="25.854" height="25.854" rx="4.654" fill="#43553d" /><rect x="923.171" y="974.878" width="25.854" height="25.854" rx="4.654" fill="#43553d" /><rect x="949.024" y="974.878" width="25.854" height="25.854" rx="4.654" fill="#43553d" /><rect x="406.098" y="1000.732" width="25.854" height="25.854" rx="4.654" fill="#43553d" /><rect x="457.805" y="1000.732" width="25.854" height="25.854" rx="4.654" fill="#43553d" /><rect x="535.366" y="1000.732" width="25.854" height="25.854" rx="4.654" fill="#43553d" /><rect x="612.927" y="1000.732" width="25.854" height="25.854" rx="4.654" fill="#43553d" /><rect x="664.634" y="1000.732" width="25.854" height="25.854" rx="4.654" fill="#43553d" /><rect x="690.488" y="1000.732" width="25.854" height="25.854" rx="4.654" fill="#43553d" /><rect x="768.049" y="1000.732" width="25.854" height="25.854" rx="4.654" fill="#43553d" /><rect x="793.902" y="1000.732" width="25.854" height="25.854" rx="4.654" fill="#43553d" /><rect x="819.756" y="1000.732" width="25.854" height="25.854" rx="4.654" fill="#43553d" /><rect x="923.171" y="1000.732" width="25.854" height="25.854" rx="4.654" fill="#43553d" /><rect x="974.878" y="1000.732" width="25.854" height="25.854" rx="4.654" fill="#43553d" />
    <rect x="173.415" y="173.415" width="180.976" height="180.976" rx="29.732" fill="#43553d" />
    <rect x="199.268" y="199.268" width="129.268" height="129.268" rx="18.615" fill="#ffffff" />
    <rect x="225.122" y="225.122" width="77.561" height="77.561" rx="14.995" fill="#43553d" />
    <rect x="845.61" y="173.415" width="180.976" height="180.976" rx="29.732" fill="#43553d" />
    <rect x="871.463" y="199.268" width="129.268" height="129.268" rx="18.615" fill="#ffffff" />
    <rect x="897.317" y="225.122" width="77.561" height="77.561" rx="14.995" fill="#43553d" />
    <rect x="173.415" y="845.61" width="180.976" height="180.976" rx="29.732" fill="#43553d" />
    <rect x="199.268" y="871.463" width="129.268" height="129.268" rx="18.615" fill="#ffffff" />
    <rect x="225.122" y="897.317" width="77.561" height="77.561" rx="14.995" fill="#43553d" />
      <circle cx="600" cy="600" r="104.707" fill="#ffffff" stroke="#9caf88" stroke-width="8.79" />
      <text x="600" y="618.615" text-anchor="middle" fill="#43553d" font-family="Georgia, 'Times New Roman', serif" font-size="56.878" font-weight="700">M&amp;J</text>
</svg>